PathFileType	4	(X/Y/Z)	C:\Users\Basilio\Documents\Thesis Gigler\squatting_fais\c3dfiles\075\SLS_front_pre2\markers_experimental.trc
DataRate	CameraRate	NumFrames	NumMarkers	Units	OrigDataRate	OrigDataStartFrame	OrigNumFrames
200.000000	200.000000	4	61	mm	200.000000	0	1473
Frame#	Time	FHD			LBHD			C7			T10			CLAV			LSHO			LUUPA			LMUPA			LDUPA			LLEP			LMEP			LRAD			LUL			LRFIN			RSHO			RUPA1			RMUPA			RDUPA			RLEP			RMEP			RRAD			RUL			RUFIN			RASI			USACR			LSACR			RSACR			LTHI1			LTHI2			LTHI3			LTHI4			LLFC			LMFC			LTIB1			LTIB2			LTIB3			LTIB4			LLMAL			LMMAL			LHEE			LMT1			LMT2			LMT5			RTHI			RTHI2			RTHI3			RTHI4			RLFC			RMFC			RTIB1			RTIB2			RTIB3			RTIB4			RLMAL			RMMAL			RHEE			RMT1			RMT2			RMT5			RBHD			LASI			
		X1	Y1	Z1	X2	Y2	Z2	X3	Y3	Z3	X4	Y4	Z4	X5	Y5	Z5	X6	Y6	Z6	X7	Y7	Z7	X8	Y8	Z8	X9	Y9	Z9	X10	Y10	Z10	X11	Y11	Z11	X12	Y12	Z12	X13	Y13	Z13	X14	Y14	Z14	X15	Y15	Z15	X16	Y16	Z16	X17	Y17	Z17	X18	Y18	Z18	X19	Y19	Z19	X20	Y20	Z20	X21	Y21	Z21	X22	Y22	Z22	X23	Y23	Z23	X24	Y24	Z24	X25	Y25	Z25	X26	Y26	Z26	X27	Y27	Z27	X28	Y28	Z28	X29	Y29	Z29	X30	Y30	Z30	X31	Y31	Z31	X32	Y32	Z32	X33	Y33	Z33	X34	Y34	Z34	X35	Y35	Z35	X36	Y36	Z36	X37	Y37	Z37	X38	Y38	Z38	X39	Y39	Z39	X40	Y40	Z40	X41	Y41	Z41	X42	Y42	Z42	X43	Y43	Z43	X44	Y44	Z44	X45	Y45	Z45	X46	Y46	Z46	X47	Y47	Z47	X48	Y48	Z48	X49	Y49	Z49	X50	Y50	Z50	X51	Y51	Z51	X52	Y52	Z52	X53	Y53	Z53	X54	Y54	Z54	X55	Y55	Z55	X56	Y56	Z56	X57	Y57	Z57	X58	Y58	Z58	X59	Y59	Z59	X60	Y60	Z60	X61	Y61	Z61	

1	0	-289.3063659667969	1718.05322265625	-854.5203857421877	-433.7512817382814	1583.7744140625	-891.5982666015627	-455.8417053222657	1472.0498046875	-847.8196411132815	-466.8426208496095	1146.830078125	-850.6120605468752	-312.6607360839844	1411.806396484375	-844.7840576171877	-341.7621459960938	1439.286865234375	-1006.539001464844	-350.9417724609376	1231.444946289063	-1117.031860351563	-311.3719177246094	1210.82470703125	-1094.2490234375	-334.2053527832032	1164.155883789063	-1126.509033203125	-308.7328796386719	1082.663330078125	-1120.80078125	-381.5110168457032	1071.582641601563	-1064.380004882813	-206.1434173583985	998.118347167969	-903.006774902344	-174.9929504394532	952.0935668945315	-953.803405761719	-143.8338775634766	977.083923339844	-853.735534667969	-352.6304626464844	1432.401000976563	-681.6728515625001	-366.6117553710938	1225.492431640625	-573.4722900390626	-327.7589721679688	1200.610595703125	-592.2164916992189	-356.8868103027344	1156.257080078125	-561.8916015625001	-336.3331909179688	1087.892700195313	-561.9507446289064	-396.1422729492189	1055.501342773438	-611.0814819335939	-188.3318634033203	1002.1162109375	-779.9771728515627	-176.1940002441407	959.5872192382815	-717.1437377929689	-115.9194869995117	968.7835693359377	-815.928894042969	-296.9292602539063	986.3743896484377	-724.7077026367189	-456.4031066894532	1043.14111328125	-853.6694335937502	-462.900360107422	1011.389038085938	-880.6489257812502	-461.3342590332032	1012.524353027344	-823.5703125000002	-334.8390197753907	736.2858276367189	-1057.576293945313	-296.1864318847657	660.5705566406251	-1058.838012695313	-250.8652648925782	669.8828125000001	-1042.521728515625	-318.2699584960938	605.1569213867189	-1049.703125	-314.1790161132813	496.7874755859376	-1041.220458984375	-262.8154602050782	483.8931579589845	-921.0872192382815	-247.568099975586	379.1888732910157	-1018.045654296875	-308.4437866210938	338.0672607421876	-1064.6650390625	-265.8006286621094	333.0407409667969	-1048.816528320313	-262.3608398437501	251.8708953857422	-1024.279174804688	-324.5513000488282	106.1935501098633	-1045.326293945313	-295.6034240722657	119.5915145874024	-963.7822265625002	-376.4071044921876	71.39235687255861	-1003.68115234375	-170.9386138916016	54.29590606689455	-969.387634277344	-164.7967376708985	57.64786529541017	-1017.938781738281	-200.5110778808594	40.09762573242188	-1071.049194335938	-339.8650512695313	778.9883422851565	-664.3845825195314	-296.9584960937501	729.6085815429689	-669.7175292968751	-266.5706481933594	738.8379516601564	-680.8499755859376	-317.1322631835938	646.8865356445314	-680.3458862304689	-320.1983337402344	493.275848388672	-715.2054443359376	-283.6068420410157	492.3226318359376	-839.1960449218752	-279.9217529296876	346.8380432128907	-787.2354736328127	-338.2133483886719	270.8791198730469	-734.2061767578126	-302.5996093750001	264.1739196777344	-766.1859741210939	-316.8527526855469	223.1929016113282	-806.2645263671877	-396.496795654297	109.3024673461914	-775.0454711914065	-362.3801574707032	135.1878204345703	-854.4436035156252	-448.1289672851564	90.8451385498047	-836.0269775390627	-242.8806457519532	60.24628829956056	-824.6726074218752	-248.7470855712891	57.71004867553712	-782.1663818359377	-290.2145080566407	35.66305160522462	-735.2278442382814	nan	nan	nan	nan	nan	nan	
2	0.005	-289.0979003906251	1718.031860351563	-854.3174438476565	-433.701385498047	1583.923828125	-891.8165283203127	-455.7181701660157	1472.014892578125	-847.8132324218752	-466.7824096679689	1146.861572265625	-850.6651611328127	-312.5979919433594	1411.788452148438	-844.7920532226565	-341.6804504394532	1439.278686523438	-1006.563049316406	-350.9087219238282	1231.4267578125	-1117.003295898438	-311.3270874023438	1210.801147460938	-1094.207885742188	-334.1720581054688	1164.139404296875	-1126.510009765625	-308.6171875000001	1082.661987304688	-1120.758911132813	-381.4486389160157	1071.580688476563	-1064.374145507813	-206.1471557617188	998.0601806640627	-902.9624633789065	-175.0103454589844	952.0520019531252	-953.7586669921877	-143.7934265136719	977.0335083007815	-853.7037353515627	-352.5632019042969	1432.403686523438	-681.6553955078126	-366.4428100585938	1225.507568359375	-573.4402465820314	-327.6216125488282	1200.625122070313	-592.1761474609376	-356.7671203613282	1156.25390625	-561.8711547851564	-336.2182006835938	1087.890991210938	-561.9276733398439	-396.0227355957032	1055.491333007813	-611.1091308593751	-188.2348785400391	1002.070617675781	-779.9309692382815	-176.1319580078125	959.5579833984377	-717.1441040039064	-115.9120712280274	968.7075805664065	-815.919372558594	-296.8608703613282	986.4002075195315	-724.7991333007814	-456.319305419922	1043.10302734375	-853.6842041015627	-462.8031616210939	1011.376892089844	-880.6047973632815	-461.1990051269532	1012.540344238281	-823.5977783203127	-334.7215576171876	736.2736206054689	-1057.608154296875	-296.0662231445313	660.5545654296876	-1058.847412109375	-250.7428131103516	669.8732299804689	-1042.53662109375	-318.1890258789063	605.1647338867189	-1049.74560546875	-314.0653076171876	496.7987365722657	-1041.209838867188	-262.7178649902344	483.8910217285157	-921.0427856445315	-247.4402465820313	379.1420288085938	-1018.034362792969	-308.3512268066407	338.0643005371094	-1064.664672851563	-265.7343444824219	333.0239562988282	-1048.861694335938	-261.4387817382813	251.6459503173829	-1023.506530761719	-324.5542907714844	106.1750793457032	-1045.3212890625	-295.5976867675782	119.5858917236328	-963.7874145507815	-376.4224548339844	71.39871215820314	-1003.681091308594	-170.9324493408203	54.29735183715822	-969.3675537109377	-164.8143463134766	57.6453094482422	-1017.9248046875	-200.5286254882813	40.10363006591798	-1071.062622070313	-339.7557983398438	779.0052490234377	-664.3944702148439	-296.8591613769532	729.7990722656251	-669.7393188476564	-266.4399108886719	738.8814697265626	-680.8932495117189	-317.0506286621094	646.8925781250001	-680.3546752929689	-320.1869506835938	493.2731323242189	-715.2119140625001	-284.7953186035157	492.5153808593751	-839.5088500976565	-279.8865356445313	346.8473815917969	-787.2197265625002	-338.2395324707032	270.9104309082032	-734.1605224609376	-302.6420593261719	264.2136535644532	-766.1604003906251	-316.1242675781251	223.057846069336	-805.6973266601565	-396.463104248047	109.3031005859375	-775.085632324219	-362.4127197265626	135.195541381836	-854.3924560546877	-448.1138610839845	90.84262084960939	-836.0343017578127	-242.6038665771485	59.81678009033205	-824.464538574219	-248.7024230957032	57.6870460510254	-782.143005371094	-290.1731567382813	35.67739486694337	-735.2084350585939	nan	nan	nan	nan	nan	nan	
3	0.01	-288.9214477539063	1717.992431640625	-854.0914306640627	-433.4220275878907	1583.86328125	-891.902282714844	-455.6417846679689	1472.023193359375	-847.762145996094	-466.6836242675782	1146.856201171875	-850.6368408203127	-312.5222167968751	1411.77392578125	-844.8130493164065	-341.6310424804688	1439.253662109375	-1006.518310546875	-350.8104553222657	1231.393798828125	-1116.996215820313	-311.2766723632813	1210.769897460938	-1094.2021484375	-334.1569519042969	1164.118774414063	-1126.490112304688	-308.6594848632813	1082.625366210938	-1120.717529296875	-381.3959045410157	1071.547119140625	-1064.38232421875	-206.1468658447266	998.0163574218752	-902.9608154296877	-175.0288543701172	951.992858886719	-953.7086181640627	-143.7652130126953	976.9702758789065	-853.6966552734377	-352.4484252929688	1432.413330078125	-681.6583251953126	-366.3309936523438	1225.495727539063	-573.4086303710939	-327.5166931152344	1200.612182617188	-592.1735839843751	-356.6600952148438	1156.251220703125	-561.8158569335939	-336.1042785644532	1087.890502929688	-561.8806762695314	-395.9444885253907	1055.497314453125	-611.0068969726564	-188.1806335449219	1002.033264160156	-779.9404296875002	-176.0796966552735	959.5560302734377	-717.1171264648439	-115.8157424926758	968.639831542969	-815.8880615234377	-296.7121582031251	986.5216064453127	-724.7794189453126	-456.2388305664064	1043.127685546875	-853.7056274414065	-462.7474060058595	1011.341125488281	-880.6124267578127	-461.0988769531251	1012.527404785156	-823.607849121094	-334.5917968750001	736.1881713867189	-1057.604736328125	-295.9647216796876	660.5682983398439	-1058.849243164063	-250.6423950195313	669.8801269531251	-1042.580810546875	-318.0603942871094	605.1190185546876	-1049.72607421875	-313.8951416015626	496.7828979492189	-1041.249877929688	-262.5523376464844	483.8872070312501	-921.087829589844	-247.3672637939454	379.1354675292969	-1018.046447753906	-308.2293701171876	338.0301208496094	-1064.676635742188	-265.6053771972657	332.9795532226563	-1048.89501953125	-261.3021850585938	251.6670532226563	-1023.508972167969	-324.5312500000001	106.1824264526367	-1045.32568359375	-295.6070251464844	119.5673522949219	-963.802917480469	-376.3866271972657	71.4110794067383	-1003.661743164063	-170.5125274658203	54.14829254150392	-969.179382324219	-164.3323364257813	57.48440551757814	-1017.684631347656	-200.5218505859376	40.1258888244629	-1071.054809570313	-339.6298522949219	779.0386352539065	-664.4051513671876	-296.7279968261719	730.0190429687501	-669.5147705078126	-266.3372497558594	738.8857421875001	-680.8460083007814	-316.9431762695313	646.9573364257814	-680.3831176757814	-320.2274169921876	493.2909240722657	-715.2398071289064	-283.5674743652344	492.345428466797	-839.243591308594	-279.9217529296876	346.8380432128907	-787.2354736328127	-338.2683410644532	270.9124755859376	-734.1732177734376	-302.6083679199219	264.1993713378907	-766.1588745117189	-316.0641479492188	223.0579223632813	-805.639099121094	-396.445770263672	109.3324279785157	-775.1011962890627	-362.3521118164063	135.1399993896485	-854.4418945312502	-448.0867919921876	90.85207366943361	-836.035583496094	-242.4674224853516	59.69963455200197	-824.463317871094	-247.9072265625001	58.05945968627931	-781.1570434570315	-290.0399169921876	35.71622467041016	-735.1210327148439	nan	nan	nan	nan	nan	nan	
4	0.015	-288.7992858886719	1717.992309570313	-853.895690917969	-433.093231201172	1583.914306640625	-892.0487060546877	-455.5592346191407	1472.002563476563	-847.7552490234377	-466.6078186035157	1146.869140625	-850.6550903320315	-312.4589538574219	1411.793701171875	-844.7885742187502	-342.2320251464844	1439.421630859375	-1006.947448730469	-350.7778930664063	1231.3798828125	-1116.976440429688	-311.2604980468751	1210.752807617188	-1094.178466796875	-334.1159973144532	1164.100463867188	-1126.446533203125	-308.6116943359376	1082.621948242188	-1120.697509765625	-381.3120422363282	1071.512939453125	-1064.351684570313	-206.1240386962891	997.976501464844	-902.9190673828127	-174.9842681884766	951.9517211914065	-953.6954345703127	-143.6984405517578	976.9229125976565	-853.6790771484377	-352.3825988769532	1432.401977539063	-681.6392822265626	-366.2185974121094	1225.501586914063	-573.3562622070314	-327.4089355468751	1200.614379882813	-592.1479492187501	-356.5118103027344	1156.257568359375	-561.8015747070314	-335.9755859375001	1087.898559570313	-561.8439941406251	-395.8319091796876	1055.51318359375	-610.9050903320314	-188.1432800292969	1002.000854492188	-779.893737792969	-175.9940185546875	959.528503417969	-717.0881347656251	-115.7713241577149	968.5923461914065	-815.925720214844	-296.6517028808594	986.4945068359377	-724.7364501953126	-456.115936279297	1043.089599609375	-853.753112792969	-462.6504516601564	1011.306823730469	-880.6524047851565	-460.9946899414064	1012.511169433594	-823.5996093750002	-334.5008544921876	736.1999511718751	-1057.612548828125	-295.8266296386719	660.5601806640626	-1058.877197265625	-250.5283355712891	669.8565673828126	-1042.6259765625	-317.8912353515626	605.1383666992189	-1049.726806640625	-313.7529296875001	496.7509765625001	-1041.28955078125	-262.4587707519532	483.859100341797	-921.1198730468752	-247.2088317871094	379.1013793945313	-1018.032409667969	-308.1118469238282	338.0402832031251	-1064.669921875	-265.5235290527344	332.9553527832032	-1048.885498046875	-261.3135681152344	251.617660522461	-1023.510681152344	-324.5030517578126	106.1990585327149	-1045.320190429688	-295.6033935546876	119.5915222167969	-963.7822265625002	-377.0731811523438	71.73227691650392	-1003.912536621094	-170.9211730957032	54.31192779541017	-969.365905761719	-164.8060913085938	57.65029525756837	-1017.943603515625	-200.5064239501954	40.11128616333009	-1071.048461914063	-339.5151977539063	779.0800781250002	-664.3966064453126	-296.6647338867188	729.7335815429689	-669.8875732421876	-266.2658691406251	738.8877563476564	-680.9572143554689	-316.8793029785157	646.9670410156251	-680.3835449218751	-320.2043151855469	493.3493957519532	-715.2348022460939	-284.7308044433594	492.5896301269532	-839.546081542969	-279.8865356445313	346.8473815917969	-787.2197265625002	-338.2712707519532	270.9176025390626	-734.1960449218751	-302.6435241699219	264.2329406738282	-766.1708374023439	-316.8015747070313	223.1907501220704	-806.110046386719	-396.4425048828126	109.3450927734375	-775.1101684570315	-362.3590087890626	135.1641845703125	-854.4746093750002	-448.0820617675782	90.89710235595705	-836.0260009765627	-242.5987548828126	60.02465820312501	-824.5882568359377	-247.8873291015626	57.98694610595705	-781.1730957031252	-290.0357971191407	35.68220901489259	-735.1037597656251	-367.2124633789063	1624.69482421875	-747.8694458007814	nan	nan	nan	
